<?xml version="1.0" encoding="UTF-8"?>
<svg version="1.1" xmlns="http://www.w3.org/2000/svg" width="200" height="201">
<path d="M0 0 C66 0 132 0 200 0 C200 66.33 200 132.66 200 201 C134 201 68 201 0 201 C0 134.67 0 68.34 0 0 Z " fill="#662FBE" transform="translate(0,0)"/>
<path d="M0 0 C1.125 3.75 1.125 3.75 0 6 C0.639375 6.226875 1.27875 6.45375 1.9375 6.6875 C6.13320261 8.48565826 10.03900556 10.73904021 14 13 C14.60328125 12.48824219 15.2065625 11.97648437 15.828125 11.44921875 C16.90320313 10.73185547 16.90320313 10.73185547 18 10 C20.75 10.8125 20.75 10.8125 23 12 C23 13.65 23 15.3 23 17 C20.03 17.495 20.03 17.495 17 18 C17 23.94 17 29.88 17 36 C19.97 36.495 19.97 36.495 23 37 C23.125 39.375 23.125 39.375 23 42 C22.34 42.66 21.68 43.32 21 44 C18.375 43.625 18.375 43.625 16 43 C16 42.01 16 41.02 16 40 C15.25234375 40.40992188 14.5046875 40.81984375 13.734375 41.2421875 C12.74953125 41.78101563 11.7646875 42.31984375 10.75 42.875 C9.77546875 43.40867188 8.8009375 43.94234375 7.796875 44.4921875 C5.54869592 45.70419466 3.2927195 46.87547567 1 48 C1 50.31 1 52.62 1 55 C-1.475 55.495 -1.475 55.495 -4 56 C-3.34 55.34 -2.68 54.68 -2 54 C-1.3574765 51.93125966 -1.3574765 51.93125966 -1 50 C-2.32 49.67 -3.64 49.34 -5 49 C-2.69 47.68 -0.38 46.36 2 45 C1.09378906 45.05800781 0.18757813 45.11601563 -0.74609375 45.17578125 C-8.90802179 45.47807488 -14.36239618 44.91674357 -21 40 C-21.33 40.99 -21.66 41.98 -22 43 C-23.875 43.8125 -23.875 43.8125 -26 44 C-26.99 43.34 -27.98 42.68 -29 42 C-29.1875 39.375 -29.1875 39.375 -29 37 C-26.03 36.505 -26.03 36.505 -23 36 C-23 30.06 -23 24.12 -23 18 C-24.65 17.67 -26.3 17.34 -28 17 C-28.33 15.35 -28.66 13.7 -29 12 C-26.6875 10.875 -26.6875 10.875 -24 10 C-23.01 10.66 -22.02 11.32 -21 12 C-21 12.66 -21 13.32 -21 14 C-19.73542969 13.24203125 -19.73542969 13.24203125 -18.4453125 12.46875 C-17.34960938 11.8190625 -16.25390625 11.169375 -15.125 10.5 C-14.03445312 9.8503125 -12.94390625 9.200625 -11.8203125 8.53125 C-9 7 -9 7 -7 7 C-7 7.66 -7 8.32 -7 9 C-4.03 9 -1.06 9 2 9 C-0.31 8.01 -2.62 7.02 -5 6 C-4.67 5.01 -4.34 4.02 -4 3 C-3.01 3 -2.02 3 -1 3 C-0.67 2.01 -0.34 1.02 0 0 Z " fill="#BEA6E5" transform="translate(103,59)"/>
<path d="M0 0 C2.6875 0.875 2.6875 0.875 5 2 C5 2.66 5 3.32 5 4 C6.98 3.01 8.96 2.02 11 1 C12 4 12 4 10.5625 7.1875 C9.7890625 8.5796875 9.7890625 8.5796875 9 10 C9.66 10 10.32 10 11 10 C11.12375 9.236875 11.2475 8.47375 11.375 7.6875 C12 5 12 5 14 2 C15.9453125 1.70703125 15.9453125 1.70703125 18.125 1.8125 C19.40375 1.874375 20.6825 1.93625 22 2 C22 3.32 22 4.64 22 6 C21.030625 6.45375 20.06125 6.9075 19.0625 7.375 C15.92920418 8.65786221 15.92920418 8.65786221 15 11 C14.34 11 13.68 11 13 11 C13 14.96 13 18.92 13 23 C15.98806107 24.49403054 18.89656201 25.79310745 22 27 C22 28.65 22 30.3 22 32 C16.69072575 32.43518641 16.69072575 32.43518641 14 32 C11.54678356 29.16346849 11 27.74876504 11 24 C10.34 24 9.68 24 9 24 C9.515625 24.928125 10.03125 25.85625 10.5625 26.8125 C12 30 12 30 11 33 C9.02 32.01 7.04 31.02 5 30 C4.67 30.99 4.34 31.98 4 33 C2.125 33.8125 2.125 33.8125 0 34 C-0.99 33.34 -1.98 32.68 -3 32 C-3.1875 29.375 -3.1875 29.375 -3 27 C-1.02 26.67 0.96 26.34 3 26 C3 20.06 3 14.12 3 8 C1.35 7.67 -0.3 7.34 -2 7 C-2.33 5.35 -2.66 3.7 -3 2 C-2.01 1.34 -1.02 0.68 0 0 Z " fill="#C3ADE7" transform="translate(77,69)"/>
<path d="M0 0 C2.75 0.8125 2.75 0.8125 5 2 C5 3.65 5 5.3 5 7 C3.02 7.33 1.04 7.66 -1 8 C-1 11.63 -1 15.26 -1 19 C-2.32 19.33 -3.64 19.66 -5 20 C-5.66 20.99 -6.32 21.98 -7 23 C-7.99 23 -8.98 23 -10 23 C-10.08636719 22.18015625 -10.17273438 21.3603125 -10.26171875 20.515625 C-10.97257929 13.82996271 -10.97257929 13.82996271 -14.4375 8.3125 C-17.0138726 6.9114728 -17.0138726 6.9114728 -20 6 C-20 4.68 -20 3.36 -20 2 C-18.08496326 1.77718126 -16.16783494 1.57228924 -14.25 1.375 C-13.18265625 1.25898437 -12.1153125 1.14296875 -11.015625 1.0234375 C-7.96207601 0.99970525 -6.53837579 1.38579015 -4 3 C-3.443125 2.46375 -2.88625 1.9275 -2.3125 1.375 C-1.549375 0.92125 -0.78625 0.4675 0 0 Z " fill="#C7B2E9" transform="translate(121,69)"/>
<path d="M0 0 C3.5985297 0.57833513 5.62270249 1.36221367 8.5 3.5625 C10.12220646 6.80691291 10.20159132 10.06790703 9.5 13.5625 C6.61756811 16.85670787 4.75851556 18.33134408 0.4375 19.125 C-3.17781108 18.43270639 -4.88108416 17.10658967 -7.5 14.5625 C-8.95147903 11.65954195 -8.87239025 9.78988221 -8.5 6.5625 C-6.00629406 2.48189029 -4.79703202 0.77095157 0 0 Z " fill="#703BC3" transform="translate(99.5,76.4375)"/>
<path d="M0 0 C0.33 0.66 0.66 1.32 1 2 C0.67 2.66 0.34 3.32 0 4 C-0.53252058 7.99390436 -0.35389756 9.51741242 2.0625 12.8125 C5.47344416 15.3525648 7.80230628 15.75307684 12 16 C11.01 16.33 10.02 16.66 9 17 C9 18.65 9 20.3 9 22 C12.63 22 16.26 22 20 22 C17.51047079 24.66735273 15.36591866 26.55746343 12 28 C12 30.31 12 32.62 12 35 C9.525 35.495 9.525 35.495 7 36 C7.66 35.34 8.32 34.68 9 34 C9.6425235 31.93125966 9.6425235 31.93125966 10 30 C8.68 29.67 7.36 29.34 6 29 C8.31 27.68 10.62 26.36 13 25 C12.02417969 25.03480469 11.04835938 25.06960937 10.04296875 25.10546875 C8.13451172 25.14607422 8.13451172 25.14607422 6.1875 25.1875 C4.29064453 25.23970703 4.29064453 25.23970703 2.35546875 25.29296875 C-1 25 -1 25 -2.875 23.64453125 C-5.03006137 20.49425057 -6 17.81564618 -6 14 C-5.34 14 -4.68 14 -4 14 C-1 19.75 -1 19.75 -1 22 C1.64 22 4.28 22 7 22 C7 20.35 7 18.7 7 17 C6.2575 16.896875 5.515 16.79375 4.75 16.6875 C1.66945947 15.91736487 0.24188816 15.24188816 -2 13 C-2.390625 10.08203125 -2.390625 10.08203125 -2.25 6.8125 C-2.21390625 5.72582031 -2.1778125 4.63914062 -2.140625 3.51953125 C-2.09421875 2.68808594 -2.0478125 1.85664062 -2 1 C-1.34 0.67 -0.68 0.34 0 0 Z " fill="#D2C1EE" transform="translate(92,79)"/>
<path d="M0 0 C0.33 0.99 0.66 1.98 1 3 C1.66 3 2.32 3 3 3 C3 5.31 3 7.62 3 10 C5.97 10.495 5.97 10.495 9 11 C9.125 13.375 9.125 13.375 9 16 C8.34 16.66 7.68 17.32 7 18 C4.375 17.625 4.375 17.625 2 17 C2 16.01 2 15.02 2 14 C-1.465 15.485 -1.465 15.485 -5 17 C-2.67105263 4.57894737 -2.67105263 4.57894737 0 0 Z " fill="#C7B1E9" transform="translate(117,85)"/>
<path d="M0 0 C7.2 -0.48 7.2 -0.48 10.5 1.5 C12.61132214 5.01887023 12.82049461 7.9959863 12 12 C10.25 14.5 10.25 14.5 8 16 C6.68 16 5.36 16 4 16 C4 11.71 4 7.42 4 3 C4.66 3 5.32 3 6 3 C6 2.34 6 1.68 6 1 C4.02 1 2.04 1 0 1 C0 0.67 0 0.34 0 0 Z " fill="#6D38C2" transform="translate(97,78)"/>
<path d="M0 0 C1.125 3.75 1.125 3.75 0 6 C0.7425 6.2475 1.485 6.495 2.25 6.75 C5 8 5 8 9 12 C-1.395 12.495 -1.395 12.495 -12 13 C-12.99 15.31 -13.98 17.62 -15 20 C-15.66 20 -16.32 20 -17 20 C-16.69096017 18.66082739 -16.34976758 17.32911682 -16 16 C-15.7525 14.989375 -15.505 13.97875 -15.25 12.9375 C-13.75089877 9.41461211 -12.44034677 8.54815605 -9 7 C-8.34 7 -7.68 7 -7 7 C-7 7.66 -7 8.32 -7 9 C-4.03 9 -1.06 9 2 9 C-0.31 8.01 -2.62 7.02 -5 6 C-4.67 5.01 -4.34 4.02 -4 3 C-3.01 3 -2.02 3 -1 3 C-0.67 2.01 -0.34 1.02 0 0 Z " fill="#CBB7EA" transform="translate(103,59)"/>
<path d="M0 0 C3.0625 0.3125 3.0625 0.3125 5 1.4375 C6.60193488 4.26444391 5.85834319 6.26176777 5.0625 9.3125 C4.0625 10.3125 4.0625 10.3125 0.625 10.5 C-2.9375 10.3125 -2.9375 10.3125 -4.9375 8.3125 C-5.1875 5.3125 -5.1875 5.3125 -4.9375 2.3125 C-2.9375 0.3125 -2.9375 0.3125 0 0 Z " fill="#D9CAF0" transform="translate(121.9375,123.6875)"/>
<path d="M0 0 C6.625 -0.25 6.625 -0.25 10 2 C10.3125 5 10.3125 5 10 8 C8 10 8 10 6.0546875 10.1953125 C4.03645833 10.13020833 2.01822917 10.06510417 0 10 C0 6.7 0 3.4 0 0 Z " fill="#DACCF1" transform="translate(104,124)"/>
<path d="M0 0 C3 0.25 3 0.25 5 2.25 C5.33661952 5.4142235 5.49943411 7.43513382 3.8125 10.1875 C2 11.25 2 11.25 -0.5625 11.0625 C-3 10.25 -3 10.25 -5 8.25 C-5.25 5.25 -5.25 5.25 -5 2.25 C-3 0.25 -3 0.25 0 0 Z " fill="#DBCEF2" transform="translate(88,123.75)"/>
<path d="M0 0 C1.134375 0.020625 2.26875 0.04125 3.4375 0.0625 C2.7775 1.7125 2.1175 3.3625 1.4375 5.0625 C0.4475 5.0625 -0.5425 5.0625 -1.5625 5.0625 C-1.5625 5.7225 -1.5625 6.3825 -1.5625 7.0625 C1.9025 9.0425 1.9025 9.0425 5.4375 11.0625 C5.4375 11.3925 5.4375 11.7225 5.4375 12.0625 C1.4775 12.0625 -2.4825 12.0625 -6.5625 12.0625 C-5.9025 11.7325 -5.2425 11.4025 -4.5625 11.0625 C-4.57410156 10.35222656 -4.58570312 9.64195313 -4.59765625 8.91015625 C-4.60667969 7.99105469 -4.61570312 7.07195312 -4.625 6.125 C-4.63660156 5.20847656 -4.64820312 4.29195312 -4.66015625 3.34765625 C-4.49885955 -0.42668664 -3.92591522 0.06887571 0 0 Z " fill="#A584DA" transform="translate(100.5625,56.9375)"/>
<path d="M0 0 C1.09570312 0.00902344 2.19140625 0.01804687 3.3203125 0.02734375 C4.16335937 0.03894531 5.00640625 0.05054687 5.875 0.0625 C3.51207344 2.58838702 2.21037489 3.95070837 -1.125 5.0625 C-0.135 5.3925 0.855 5.7225 1.875 6.0625 C1.545 7.7125 1.215 9.3625 0.875 11.0625 C-0.115 11.3925 -1.105 11.7225 -2.125 12.0625 C-2.785 11.7325 -3.445 11.4025 -4.125 11.0625 C-4.0425 9.969375 -3.96 8.87625 -3.875 7.75 C-3.71396039 4.02807142 -3.71396039 4.02807142 -6.125 2.125 C-6.785 1.774375 -7.445 1.42375 -8.125 1.0625 C-5.36047967 -0.31976016 -3.0788637 -0.03275387 0 0 Z " fill="#B79DE2" transform="translate(100.125,102.9375)"/>
<path d="M0 0 C0.8353125 0.433125 0.8353125 0.433125 1.6875 0.875 C4.08494645 2.0413253 6.51596939 3.0339881 9 4 C9 5.65 9 7.3 9 9 C3.71974352 9.43280791 3.71974352 9.43280791 1 9 C-1.125 6.75 -1.125 6.75 -2 4 C-1.1875 1.6875 -1.1875 1.6875 0 0 Z " fill="#713CC4" transform="translate(90,92)"/>
<path d="M0 0 C-0.54723683 3.37462715 -1.0549 5.08235 -3 8 C-4.9453125 8.29296875 -4.9453125 8.29296875 -7.125 8.1875 C-9.043125 8.0946875 -9.043125 8.0946875 -11 8 C-11 6.35 -11 4.7 -11 3 C-4.5 0 -4.5 0 0 0 Z " fill="#703CC4" transform="translate(112,93)"/>
<path d="M0 0 C1.32 0.33 2.64 0.66 4 1 C4 4.3 4 7.6 4 11 C2.68 11.33 1.36 11.66 0 12 C-1.625 9.875 -1.625 9.875 -3 7 C-1.8 1.8 -1.8 1.8 0 0 Z " fill="#713DC4" transform="translate(86,80)"/>
<path d="M0 0 C1.9375 0.25 1.9375 0.25 4 1 C6 4 6 4 5.75 6.5 C5 9 5 9 3 12 C2.01 12 1.02 12 0 12 C-0.19401633 10.18818595 -0.38004375 8.37551468 -0.5625 6.5625 C-0.66691406 5.55316406 -0.77132812 4.54382813 -0.87890625 3.50390625 C-0.91886719 2.67761719 -0.95882812 1.85132812 -1 1 C-0.67 0.67 -0.34 0.34 0 0 Z " fill="#703BC3" transform="translate(111,80)"/>
<path d="M0 0 C7.42608696 -0.48695652 7.42608696 -0.48695652 10.0625 1.75 C11.14715729 4.3531775 11.01560704 5.41481845 10 8 C6.33118845 7.29445932 3.29549466 5.72264494 0 4 C0 2.68 0 1.36 0 0 Z " fill="#6E39C3" transform="translate(101,71)"/>
<path d="M0 0 C2.05078125 0.03255208 4.1015625 0.06510417 6.15234375 0.09765625 C6.15234375 1.41765625 6.15234375 2.73765625 6.15234375 4.09765625 C-0.24765625 8.15919471 -0.24765625 8.15919471 -3.28515625 7.84765625 C-3.80078125 7.60015625 -4.31640625 7.35265625 -4.84765625 7.09765625 C-2.62675581 0.13883487 -2.62675581 0.13883487 0 0 Z " fill="#6D38C2" transform="translate(92.84765625,70.90234375)"/>
<path d="M0 0 C2.29141286 -0.05384521 4.58318188 -0.09272087 6.875 -0.125 C8.78925781 -0.15980469 8.78925781 -0.15980469 10.7421875 -0.1953125 C14 0 14 0 16 2 C14.02 2.99 12.04 3.98 10 5 C10 7.31 10 9.62 10 12 C8.35 12.33 6.7 12.66 5 13 C5.66 12.34 6.32 11.68 7 11 C7.6425235 8.93125966 7.6425235 8.93125966 8 7 C6.68 6.67 5.36 6.34 4 6 C6.31 4.68 8.62 3.36 11 2 C7.37 1.67 3.74 1.34 0 1 C0 0.67 0 0.34 0 0 Z " fill="#C5B0E8" transform="translate(94,102)"/>
<path d="M0 0 C2.625 0.9375 2.625 0.9375 5 2 C4.8125 3.875 4.8125 3.875 4 6 C1.4375 7.25 1.4375 7.25 -1 8 C-1.66 7.34 -2.32 6.68 -3 6 C-2.75 3.4375 -2.75 3.4375 -2 1 C-1.34 0.67 -0.68 0.34 0 0 Z " fill="#AA8ADC" transform="translate(77,69)"/>
<path d="M0 0 C2.64 0 5.28 0 8 0 C8 0.66 8 1.32 8 2 C7.34 2 6.68 2 6 2 C6 4.97 6 7.94 6 11 C5.01 11 4.02 11 3 11 C3 8.03 3 5.06 3 2 C2.01 2 1.02 2 0 2 C0 1.34 0 0.68 0 0 Z " fill="#D6C6EF" transform="translate(72,124)"/>
<path d="M0 0 C2.625 0.9375 2.625 0.9375 5 2 C5 3.65 5 5.3 5 7 C3.02 7.33 1.04 7.66 -1 8 C-1.33 5.69 -1.66 3.38 -2 1 C-1.34 0.67 -0.68 0.34 0 0 Z " fill="#A787DB" transform="translate(121,69)"/>
<path d="M0 0 C0.66 0 1.32 0 2 0 C2 1.32 2 2.64 2 4 C3.65 4.33 5.3 4.66 7 5 C7 5.99 7 6.98 7 8 C6.01 7.67 5.02 7.34 4 7 C-1.33295432 6.656509 -1.33295432 6.656509 -6 9 C-6 8.01 -6 7.02 -6 6 C-3 4 -3 4 0 4 C0 2.68 0 1.36 0 0 Z " fill="#BAA0E3" transform="translate(99,71)"/>
<path d="M0 0 C1.98 0 3.96 0 6 0 C6 0.66 6 1.32 6 2 C5.34 2 4.68 2 4 2 C4 5.63 4 9.26 4 13 C3.34 13 2.68 13 2 13 C2 9.37 2 5.74 2 2 C1.34 2 0.68 2 0 2 C0 1.34 0 0.68 0 0 Z " fill="#B79DE2" transform="translate(97,79)"/>
<path d="M0 0 C2.40575607 2.18517099 3.79535581 4.25919671 5.1875 7.1875 C5.53167969 7.90292969 5.87585938 8.61835937 6.23046875 9.35546875 C6.48441406 9.89816406 6.73835938 10.44085938 7 11 C2.25 9.125 2.25 9.125 0 8 C0 5.36 0 2.72 0 0 Z " fill="#7949C8" transform="translate(82,89)"/>
<path d="M0 0 C0.66 0.33 1.32 0.66 2 1 C1.02526874 2.66926454 0.04510211 4.33535642 -0.9375 6 C-1.75541016 7.3921875 -1.75541016 7.3921875 -2.58984375 8.8125 C-3.05519531 9.534375 -3.52054687 10.25625 -4 11 C-4.33 11 -4.66 11 -5 11 C-5.43666974 5.67262923 -5.43666974 5.67262923 -5 3 C-2.625 0.9375 -2.625 0.9375 0 0 Z " fill="#7C4CC9" transform="translate(87,72)"/>
<path d="M0 0 C1.875 0.9375 1.875 0.9375 4.875 3.9375 C0.915 3.9375 -3.045 3.9375 -7.125 3.9375 C-2.74158031 -0.08063472 -2.74158031 -0.08063472 0 0 Z " fill="#733FC5" transform="translate(101.125,65.0625)"/>
<path d="M0 0 C1.9375 0.8125 1.9375 0.8125 4 2 C4.96070434 4.88211302 5.10581883 6.69850044 5.0625 9.6875 C5.05347656 10.49574219 5.04445313 11.30398437 5.03515625 12.13671875 C5.02355469 12.75160156 5.01195313 13.36648437 5 14 C4.01 14 3.02 14 2 14 C2.02320312 13.32453125 2.04640625 12.6490625 2.0703125 11.953125 C2.09738281 10.61507812 2.09738281 10.61507812 2.125 9.25 C2.15980469 7.92742187 2.15980469 7.92742187 2.1953125 6.578125 C1.99139502 3.8864142 1.36551721 2.30095026 0 0 Z " fill="#C8B4E9" transform="translate(106,78)"/>
<path d="M0 0 C0.33 0 0.66 0 1 0 C1.25 3.3125 1.25 3.3125 1 7 C-0.875 8.9375 -0.875 8.9375 -3 10 C-3.66 10 -4.32 10 -5 10 C-3.66654496 6.40992874 -2.1056769 3.20429093 0 0 Z " fill="#7543C6" transform="translate(117,90)"/>
<path d="M0 0 C4.875 1.875 4.875 1.875 6 3 C6.04092937 5.33297433 6.04241723 7.66705225 6 10 C3.38275905 7.63202009 1.67138271 5.10399646 0 2 C0 1.34 0 0.68 0 0 Z " fill="#7745C7" transform="translate(112,72)"/>
<path d="M0 0 C1.32 0.66 2.64 1.32 4 2 C4 2.99 4 3.98 4 5 C2.35 5.33 0.7 5.66 -1 6 C-1.625 4.125 -1.625 4.125 -2 2 C-1.34 1.34 -0.68 0.68 0 0 Z " fill="#7E4EC9" transform="translate(87,126)"/>
<path d="M0 0 C1.98 0.495 1.98 0.495 4 1 C3.67 2.65 3.34 4.3 3 6 C1.68 5.67 0.36 5.34 -1 5 C-0.67 3.35 -0.34 1.7 0 0 Z " fill="#7A49C8" transform="translate(121,126)"/>
<path d="M0 0 C3.96 0 7.92 0 12 0 C10.515 1.485 10.515 1.485 9 3 C2.66666667 2.66666667 2.66666667 2.66666667 0 0 Z " fill="#7440C5" transform="translate(94,103)"/>
<path d="M0 0 C0 0.66 0 1.32 0 2 C-0.66 2 -1.32 2 -2 2 C-2.99 4.97 -3.98 7.94 -5 11 C-5.66 11 -6.32 11 -7 11 C-6.21205747 7.58558238 -5.23882213 4.27923505 -4 1 C-2 0 -2 0 0 0 Z " fill="#D6C7EF" transform="translate(93,68)"/>
<path d="M0 0 C1.32 0.33 2.64 0.66 4 1 C3.67 2.65 3.34 4.3 3 6 C2.01 6 1.02 6 0 6 C0 4.02 0 2.04 0 0 Z " fill="#7846C7" transform="translate(107,126)"/>
<path d="M0 0 C0.99 0 1.98 0 3 0 C2.67 1.65 2.34 3.3 2 5 C1.01 4.67 0.02 4.34 -1 4 C-0.67 2.68 -0.34 1.36 0 0 Z " fill="#7E4EC9" transform="translate(99,109)"/>
<path d="M0 0 C0.99 0.33 1.98 0.66 3 1 C3 2.32 3 3.64 3 5 C1.68 4.67 0.36 4.34 -1 4 C-0.67 2.68 -0.34 1.36 0 0 Z " fill="#7948C7" transform="translate(121,96)"/>
<path d="M0 0 C0.99 0.33 1.98 0.66 3 1 C3 2.32 3 3.64 3 5 C1.68 4.67 0.36 4.34 -1 4 C-0.67 2.68 -0.34 1.36 0 0 Z " fill="#7847C7" transform="translate(77,96)"/>
</svg>
